<svg xmlns="http://www.w3.org/2000/svg" viewBox="0 0 1179 2096">
<g fill="#F7931E" stroke="#FFFFFF" stroke-width="8" stroke-linejoin="round">
<path d="M 563 1315 562 1316 560 1316 559 1317 557 1317 556 1318 555 1318 554 1319 553 1319 551 1321 550 1321 546 1325 546 1326 545 1327 545 1328 544 1329 543 1329 543 1330 542 1331 542 1332 541 1333 541 1334 540 1335 540 1336 539 1337 539 1339 538 1340 538 1343 537 1344 537 1346 536 1347 536 1351 535 1352 535 1356 534 1357 534 1361 533 1362 533 1366 532 1367 532 1372 531 1373 531 1377 530 1378 530 1382 529 1383 529 1387 528 1388 528 1392 529 1393 529 1394 528 1395 527 1395 527 1397 526 1398 526 1402 525 1403 525 1407 524 1408 524 1412 523 1413 523 1417 522 1418 522 1422 521 1423 521 1427 520 1428 520 1432 519 1433 519 1436 518 1437 518 1441 517 1442 517 1445 516 1446 516 1450 515 1451 515 1454 514 1455 514 1459 513 1460 513 1463 512 1464 512 1467 511 1468 511 1471 510 1472 510 1475 509 1476 509 1479 508 1480 508 1483 507 1484 507 1487 506 1488 506 1490 505 1491 505 1494 504 1495 504 1498 503 1499 503 1502 502 1503 502 1505 501 1506 501 1509 500 1510 500 1513 499 1514 499 1516 498 1517 498 1522 497 1523 497 1524 496 1525 496 1526 495 1527 495 1529 494 1530 494 1533 493 1534 493 1536 492 1537 492 1539 491 1540 491 1543 490 1544 490 1546 489 1547 489 1549 488 1550 488 1552 487 1553 487 1555 486 1556 486 1558 485 1559 485 1561 484 1562 484 1564 483 1565 483 1567 482 1568 482 1569 481 1570 481 1571 478 1574 477 1574 473 1570 473 1569 471 1567 471 1566 470 1565 470 1564 469 1563 469 1562 468 1561 468 1560 467 1559 467 1558 466 1557 466 1556 465 1555 465 1554 464 1553 464 1552 463 1551 463 1550 462 1549 462 1548 461 1547 461 1546 460 1545 460 1544 459 1543 459 1542 458 1541 458 1540 457 1539 457 1538 456 1537 456 1536 455 1535 455 1534 454 1533 454 1532 453 1531 453 1530 452 1529 452 1527 451 1526 451 1525 450 1524 450 1523 449 1522 449 1521 448 1520 448 1519 447 1518 447 1517 446 1516 446 1515 445 1514 445 1512 444 1511 444 1510 443 1509 443 1508 442 1507 442 1506 441 1505 441 1504 440 1503 440 1501 439 1500 439 1499 438 1498 438 1497 437 1496 437 1494 436 1493 436 1492 435 1491 435 1490 434 1489 434 1487 433 1486 433 1485 432 1484 432 1483 431 1482 431 1480 430 1479 430 1478 429 1477 429 1476 428 1475 428 1473 427 1472 427 1471 426 1470 426 1468 425 1467 425 1466 424 1465 424 1464 423 1463 423 1461 422 1460 422 1459 421 1458 421 1456 420 1455 420 1454 419 1453 419 1451 418 1450 418 1449 417 1448 417 1446 416 1445 416 1444 413 1441 413 1436 412 1435 412 1434 411 1433 411 1431 410 1430 410 1428 409 1427 409 1426 408 1425 408 1423 407 1422 407 1421 406 1420 406 1418 405 1417 405 1415 404 1414 404 1413 403 1412 403 1410 402 1409 402 1407 401 1406 401 1405 400 1404 400 1402 399 1401 399 1400 398 1399 398 1397 397 1396 397 1395 396 1394 396 1392 395 1391 395 1389 394 1388 394 1387 393 1386 393 1384 392 1383 392 1382 391 1381 391 1379 390 1378 390 1377 389 1376 389 1374 388 1373 388 1372 387 1371 387 1370 386 1369 386 1367 385 1366 385 1365 384 1364 384 1363 383 1362 383 1361 382 1360 382 1359 381 1358 381 1357 379 1355 379 1354 377 1352 377 1351 374 1348 374 1347 369 1342 368 1342 365 1339 364 1339 363 1338 362 1338 361 1337 360 1337 359 1336 357 1336 356 1335 353 1335 352 1334 342 1334 341 1335 338 1335 337 1336 335 1336 334 1337 333 1337 332 1338 331 1338 330 1339 329 1339 326 1342 325 1342 323 1344 323 1346 320 1349 319 1349 319 1350 318 1351 318 1352 317 1353 317 1354 316 1355 316 1356 315 1357 315 1359 314 1360 314 1362 313 1363 313 1365 312 1366 312 1370 311 1371 311 1376 310 1377 310 1386 309 1387 309 1464 310 1465 310 1496 311 1497 311 1524 312 1525 312 1549 313 1550 313 1577 314 1578 314 1603 315 1604 315 1626 316 1627 316 1647 317 1648 317 1669 318 1670 318 1689 319 1690 319 1711 320 1712 320 1713 319 1714 318 1714 316 1712 316 1711 315 1711 304 1700 303 1700 300 1697 300 1696 299 1695 299 1694 291 1686 291 1685 285 1679 285 1678 279 1672 279 1671 275 1667 275 1666 270 1661 270 1660 266 1656 266 1655 261 1650 261 1649 258 1646 258 1645 254 1641 254 1640 251 1637 251 1636 248 1633 248 1632 245 1629 245 1628 242 1625 242 1624 239 1621 239 1620 238 1620 236 1618 236 1616 233 1613 233 1612 231 1610 231 1609 228 1606 228 1605 225 1602 225 1601 223 1599 223 1598 220 1595 220 1594 218 1592 218 1591 216 1589 216 1588 214 1586 214 1585 211 1582 211 1581 209 1579 209 1578 207 1576 207 1575 205 1573 205 1572 203 1570 203 1569 200 1566 200 1565 197 1562 197 1561 192 1556 191 1556 187 1552 187 1551 186 1550 185 1550 184 1549 183 1549 182 1548 181 1548 180 1547 179 1547 178 1546 176 1546 175 1545 170 1545 169 1544 166 1544 165 1545 160 1545 159 1546 157 1546 156 1547 155 1547 154 1548 153 1548 151 1550 150 1550 149 1551 149 1552 148 1553 147 1553 146 1554 146 1555 142 1559 142 1560 141 1561 141 1562 140 1563 140 1565 139 1566 139 1570 138 1571 138 1584 139 1585 139 1591 140 1592 140 1597 141 1598 141 1602 142 1603 142 1608 143 1609 143 1613 144 1614 144 1618 145 1619 145 1623 146 1624 146 1629 147 1630 147 1635 148 1636 148 1641 149 1642 149 1647 150 1648 150 1653 151 1654 151 1660 152 1661 152 1666 153 1667 153 1673 154 1674 154 1680 155 1681 155 1688 156 1689 156 1696 157 1697 157 1704 158 1705 158 1712 159 1713 159 1721 160 1722 160 1723 161 1724 161 1726 160 1727 160 1729 161 1730 161 1737 162 1738 162 1747 163 1748 163 1759 164 1760 164 1771 165 1772 165 1784 166 1785 166 1800 167 1801 167 1819 168 1820 168 1850 169 1851 169 1904 170 1905 170 1916 171 1917 171 1922 172 1923 172 1926 173 1927 173 1930 174 1931 174 1933 175 1934 175 1935 176 1936 176 1938 177 1939 177 1941 178 1942 178 1945 179 1946 179 1949 180 1950 180 1952 181 1953 181 1955 182 1956 182 1957 183 1958 183 1959 185 1961 185 1962 190 1967 191 1967 193 1969 194 1969 195 1970 196 1970 197 1971 199 1971 200 1972 204 1972 205 1973 212 1973 213 1972 218 1972 219 1971 221 1971 222 1970 224 1970 225 1969 227 1969 228 1968 230 1968 231 1967 232 1967 233 1966 235 1966 236 1965 237 1965 238 1964 239 1964 240 1963 241 1963 242 1962 244 1962 245 1961 246 1961 247 1960 248 1960 249 1959 250 1959 251 1958 253 1958 254 1957 255 1957 256 1956 257 1956 258 1955 259 1955 260 1954 261 1954 262 1953 263 1953 264 1952 266 1952 267 1951 268 1951 269 1950 270 1950 271 1949 272 1949 273 1948 274 1948 275 1947 276 1947 277 1946 278 1946 279 1945 280 1945 281 1944 282 1944 283 1943 284 1943 285 1942 286 1942 287 1941 288 1941 289 1940 290 1940 291 1939 292 1939 293 1938 294 1938 295 1937 297 1937 298 1936 299 1936 300 1935 301 1935 302 1934 303 1934 304 1933 305 1933 306 1932 307 1932 308 1931 309 1931 310 1930 311 1930 312 1929 313 1929 314 1928 315 1928 316 1927 317 1927 318 1926 319 1926 320 1925 321 1925 322 1924 323 1924 324 1923 325 1923 326 1922 327 1922 328 1921 329 1921 330 1920 331 1920 332 1919 333 1919 334 1918 335 1918 336 1917 337 1917 338 1916 339 1916 340 1915 341 1915 342 1914 343 1914 344 1913 345 1913 346 1912 347 1912 348 1911 349 1911 350 1910 351 1910 352 1909 353 1909 355 1907 356 1907 357 1906 358 1906 359 1905 360 1905 361 1904 362 1904 363 1903 364 1903 365 1902 366 1902 367 1901 368 1901 369 1900 370 1900 371 1899 372 1899 373 1898 374 1898 375 1897 376 1897 377 1896 378 1896 379 1895 380 1895 381 1894 382 1894 383 1893 384 1893 385 1892 386 1892 387 1891 388 1891 389 1890 390 1890 391 1889 392 1889 393 1888 394 1888 395 1887 396 1887 398 1885 400 1885 401 1884 402 1884 403 1883 404 1883 405 1882 406 1882 407 1881 408 1881 409 1880 410 1880 411 1879 412 1879 414 1877 415 1877 416 1876 417 1876 418 1875 419 1875 420 1874 421 1874 422 1873 423 1873 424 1872 425 1872 427 1870 428 1870 429 1869 431 1869 432 1868 433 1868 434 1867 435 1867 436 1866 437 1866 438 1865 439 1865 440 1864 441 1864 442 1863 443 1863 444 1862 445 1862 446 1861 447 1861 448 1860 449 1860 450 1859 451 1859 452 1858 453 1858 454 1857 455 1857 456 1856 457 1856 460 1853 461 1853 462 1852 465 1852 467 1850 468 1850 469 1849 470 1849 471 1848 472 1848 473 1847 474 1847 475 1846 476 1846 477 1845 478 1845 479 1844 480 1844 481 1843 482 1843 483 1842 484 1842 485 1841 486 1841 487 1840 488 1840 489 1839 490 1839 492 1837 494 1837 495 1836 496 1836 497 1835 498 1835 499 1834 500 1834 501 1833 502 1833 503 1832 504 1832 505 1831 506 1831 507 1830 508 1830 509 1829 510 1829 511 1828 512 1828 513 1827 514 1827 515 1826 516 1826 517 1825 518 1825 519 1824 520 1824 521 1823 522 1823 524 1821 526 1821 527 1820 528 1820 529 1819 530 1819 531 1818 532 1818 533 1817 535 1817 536 1816 537 1816 538 1815 539 1815 540 1814 541 1814 542 1813 543 1813 544 1812 545 1812 546 1811 547 1811 548 1810 549 1810 550 1809 551 1809 552 1808 553 1808 554 1807 555 1807 557 1805 560 1805 561 1804 562 1804 563 1803 564 1803 565 1802 566 1802 567 1801 568 1801 569 1800 570 1800 571 1799 572 1799 573 1798 575 1798 576 1797 577 1797 578 1796 579 1796 580 1795 581 1795 582 1794 583 1794 584 1793 586 1793 587 1792 588 1792 588 1791 589 1790 592 1790 593 1789 595 1789 596 1788 597 1788 598 1787 599 1787 600 1786 601 1786 602 1785 603 1785 604 1784 606 1784 607 1783 608 1783 609 1782 610 1782 611 1781 613 1781 614 1780 616 1780 617 1779 620 1779 621 1778 624 1778 625 1779 628 1779 629 1780 630 1780 631 1781 632 1781 633 1782 634 1782 636 1784 637 1784 639 1786 640 1786 641 1787 642 1787 643 1788 645 1788 646 1789 649 1789 650 1790 658 1790 659 1789 662 1789 663 1788 664 1788 665 1787 666 1787 667 1786 668 1786 675 1779 675 1778 677 1776 677 1774 678 1773 678 1771 679 1770 679 1754 680 1753 680 1746 681 1745 681 1731 680 1730 680 1728 679 1727 679 1725 678 1724 678 1723 676 1721 676 1720 671 1715 671 1714 670 1714 669 1713 669 1712 665 1708 665 1707 664 1706 664 1704 663 1703 663 1701 662 1700 662 1697 661 1696 661 1692 660 1691 660 1687 659 1686 659 1682 658 1681 658 1677 657 1676 657 1672 656 1671 656 1667 655 1666 655 1665 654 1664 654 1657 653 1656 653 1652 652 1651 652 1646 651 1645 651 1640 650 1639 650 1635 649 1634 649 1629 648 1628 648 1623 647 1622 647 1617 646 1616 646 1611 645 1610 645 1605 644 1604 644 1598 643 1597 643 1592 642 1591 642 1586 641 1585 641 1580 640 1579 640 1574 639 1573 639 1570 638 1569 638 1562 637 1561 637 1556 636 1555 636 1549 635 1548 635 1543 634 1542 634 1536 633 1535 633 1530 632 1529 632 1523 631 1522 631 1517 630 1516 630 1511 629 1510 629 1505 628 1504 628 1498 627 1497 627 1492 626 1491 626 1486 625 1485 625 1479 624 1478 624 1473 623 1472 623 1468 622 1467 622 1462 621 1461 621 1456 620 1455 620 1449 619 1448 619 1443 618 1442 618 1436 617 1435 617 1430 616 1429 616 1424 615 1423 615 1418 614 1417 614 1412 613 1411 613 1406 612 1405 612 1400 611 1399 611 1394 610 1393 610 1388 609 1387 609 1382 608 1381 608 1376 607 1375 607 1371 606 1370 606 1366 605 1365 605 1360 604 1359 604 1355 603 1354 603 1350 602 1349 602 1346 601 1345 601 1343 600 1342 600 1339 599 1338 599 1337 598 1336 598 1334 597 1333 597 1332 595 1330 595 1329 593 1327 593 1326 588 1321 587 1321 585 1319 584 1319 583 1318 582 1318 581 1317 580 1317 579 1316 576 1316 575 1315 Z"/>
<path d="M 565 1329 566 1328 572 1328 573 1329 575 1329 576 1330 577 1330 582 1335 582 1336 584 1338 584 1340 585 1341 585 1343 586 1344 586 1346 587 1347 587 1351 588 1352 588 1356 589 1357 589 1361 590 1362 590 1367 591 1368 591 1372 592 1373 592 1377 593 1378 593 1383 594 1384 594 1389 595 1390 595 1395 596 1396 596 1401 597 1402 597 1407 598 1408 598 1413 599 1414 599 1419 600 1420 600 1425 601 1426 601 1431 602 1432 602 1437 603 1438 603 1444 604 1445 604 1450 605 1451 605 1456 606 1457 606 1463 607 1464 607 1468 608 1469 608 1475 609 1476 609 1481 610 1482 610 1487 611 1488 611 1494 612 1495 612 1500 613 1501 613 1506 614 1507 614 1512 615 1513 615 1519 616 1520 616 1525 617 1526 617 1531 618 1532 618 1537 619 1538 619 1543 620 1544 620 1550 621 1551 621 1556 622 1557 622 1562 623 1563 623 1569 624 1570 624 1575 625 1576 625 1581 626 1582 626 1587 627 1588 627 1593 628 1594 628 1599 629 1600 629 1607 630 1608 630 1612 631 1613 631 1618 632 1619 632 1624 633 1625 633 1630 634 1631 634 1636 635 1637 635 1641 636 1642 636 1647 637 1648 637 1653 638 1654 638 1658 639 1659 639 1663 640 1664 640 1669 641 1670 641 1674 642 1675 642 1679 643 1680 643 1684 644 1685 644 1689 645 1690 645 1693 646 1694 646 1698 647 1699 647 1703 648 1704 648 1707 649 1708 649 1711 650 1712 650 1716 651 1717 651 1719 652 1720 652 1723 658 1723 659 1724 660 1724 662 1726 663 1726 665 1728 665 1729 667 1731 667 1733 668 1734 668 1740 667 1741 667 1743 666 1744 666 1745 661 1750 661 1753 663 1755 663 1756 664 1757 664 1759 665 1760 665 1761 666 1762 666 1768 665 1769 665 1770 664 1771 664 1772 661 1775 660 1775 659 1776 657 1776 656 1777 652 1777 651 1776 649 1776 648 1775 647 1775 644 1772 644 1771 643 1770 643 1769 642 1768 642 1766 641 1765 632 1765 631 1764 630 1764 626 1760 622 1760 621 1761 620 1761 619 1762 618 1762 617 1763 615 1763 614 1764 613 1764 612 1765 610 1765 609 1766 608 1766 607 1767 606 1767 605 1768 603 1768 602 1769 600 1769 598 1771 596 1771 595 1772 594 1772 593 1773 592 1773 591 1774 589 1774 588 1775 587 1775 586 1776 585 1776 584 1777 583 1777 582 1778 581 1778 580 1779 578 1779 577 1780 576 1780 575 1781 574 1781 573 1782 572 1782 571 1783 570 1783 569 1784 567 1784 566 1785 565 1785 564 1786 563 1786 562 1787 561 1787 560 1788 559 1788 558 1789 557 1789 556 1790 555 1790 554 1791 552 1791 551 1792 550 1792 549 1793 548 1793 547 1794 546 1794 545 1795 544 1795 543 1796 542 1796 541 1797 540 1797 539 1798 538 1798 537 1799 536 1799 535 1800 533 1800 531 1802 530 1802 529 1803 528 1803 527 1804 525 1804 524 1805 523 1805 522 1806 521 1806 520 1807 519 1807 518 1808 517 1808 516 1809 515 1809 514 1810 513 1810 511 1812 509 1812 508 1813 507 1813 506 1814 505 1814 504 1815 503 1815 502 1816 501 1816 500 1817 499 1817 498 1818 497 1818 496 1819 495 1819 494 1820 493 1820 492 1821 491 1821 490 1822 489 1822 488 1823 487 1823 486 1824 485 1824 484 1825 483 1825 482 1826 481 1826 480 1827 479 1827 478 1828 477 1828 476 1829 475 1829 474 1830 473 1830 472 1831 471 1831 470 1832 469 1832 468 1833 467 1833 466 1834 465 1834 464 1835 463 1835 462 1836 461 1836 460 1837 459 1837 458 1838 457 1838 455 1840 453 1840 451 1842 450 1842 449 1843 448 1843 447 1844 446 1844 445 1845 443 1845 441 1847 440 1847 439 1848 438 1848 437 1849 436 1849 435 1850 434 1850 433 1851 432 1851 431 1852 430 1852 429 1853 428 1853 427 1854 426 1854 425 1855 424 1855 423 1856 422 1856 421 1857 420 1857 419 1858 418 1858 417 1859 416 1859 415 1860 414 1860 413 1861 412 1861 411 1862 410 1862 409 1863 408 1863 407 1864 406 1864 404 1866 403 1866 402 1867 400 1867 398 1869 397 1869 396 1870 395 1870 394 1871 393 1871 392 1872 391 1872 390 1873 389 1873 388 1874 387 1874 386 1875 385 1875 384 1876 383 1876 382 1877 381 1877 380 1878 379 1878 378 1879 377 1879 376 1880 375 1880 374 1881 373 1881 372 1882 371 1882 370 1883 369 1883 368 1884 367 1884 366 1885 365 1885 364 1886 363 1886 361 1888 359 1888 358 1889 357 1889 356 1890 355 1890 354 1891 353 1891 351 1893 349 1893 348 1894 347 1894 345 1896 344 1896 343 1897 342 1897 341 1898 340 1898 339 1899 338 1899 337 1900 336 1900 335 1901 334 1901 333 1902 332 1902 331 1903 330 1903 329 1904 328 1904 327 1905 326 1905 325 1906 324 1906 323 1907 322 1907 321 1908 320 1908 319 1909 318 1909 317 1910 316 1910 315 1911 314 1911 313 1912 312 1912 311 1913 310 1913 309 1914 308 1914 307 1915 306 1915 305 1916 304 1916 303 1917 302 1917 301 1918 300 1918 299 1919 298 1919 297 1920 296 1920 295 1921 293 1921 292 1922 291 1922 290 1923 289 1923 287 1925 285 1925 284 1926 283 1926 281 1928 279 1928 278 1929 277 1929 276 1930 275 1930 274 1931 273 1931 272 1932 271 1932 270 1933 269 1933 268 1934 267 1934 266 1935 265 1935 264 1936 262 1936 261 1937 260 1937 259 1938 258 1938 257 1939 256 1939 255 1940 254 1940 253 1941 252 1941 251 1942 250 1942 249 1943 248 1943 247 1944 245 1944 244 1945 243 1945 242 1946 241 1946 240 1947 239 1947 238 1948 237 1948 236 1949 234 1949 233 1950 232 1950 231 1951 230 1951 229 1952 227 1952 226 1953 225 1953 224 1954 223 1954 222 1955 220 1955 219 1956 218 1956 217 1957 215 1957 214 1958 212 1958 211 1959 203 1959 202 1958 200 1958 199 1957 199 1956 198 1956 197 1955 197 1954 194 1951 194 1949 193 1948 193 1941 194 1940 194 1935 193 1934 192 1934 190 1932 190 1931 188 1929 188 1928 187 1927 187 1923 186 1922 186 1918 185 1917 185 1906 184 1905 184 1850 183 1849 183 1817 182 1816 182 1797 181 1796 181 1782 180 1781 180 1770 179 1769 179 1758 178 1757 178 1748 177 1747 177 1736 176 1735 176 1728 175 1727 175 1719 174 1718 174 1710 173 1709 173 1702 172 1701 172 1694 171 1693 171 1688 170 1687 170 1680 169 1679 169 1672 168 1671 168 1665 167 1664 167 1659 166 1658 166 1652 165 1651 165 1646 164 1645 164 1640 163 1639 163 1634 162 1633 162 1628 161 1627 161 1622 160 1621 160 1616 159 1615 159 1611 158 1610 158 1606 157 1605 157 1600 156 1599 156 1595 155 1594 155 1590 154 1589 154 1585 153 1584 153 1579 152 1578 152 1571 153 1570 153 1568 154 1567 154 1566 160 1560 161 1560 162 1559 164 1559 165 1558 170 1558 171 1559 173 1559 174 1560 175 1560 177 1562 178 1562 181 1565 181 1566 185 1570 185 1571 187 1573 187 1574 190 1577 190 1578 192 1580 192 1581 194 1583 194 1584 196 1586 196 1587 198 1589 198 1590 200 1592 200 1593 203 1596 203 1597 205 1599 205 1600 207 1602 207 1603 209 1605 209 1606 212 1609 212 1610 215 1613 215 1614 217 1616 217 1617 220 1620 220 1621 222 1623 222 1624 225 1627 225 1628 228 1631 228 1632 231 1635 231 1636 234 1639 234 1640 237 1643 237 1644 240 1647 240 1648 244 1652 244 1653 247 1656 247 1657 250 1660 250 1661 255 1666 255 1667 259 1671 259 1672 264 1677 264 1678 268 1682 268 1683 274 1689 274 1690 280 1696 280 1697 288 1705 288 1706 301 1719 301 1720 322 1741 323 1741 333 1751 334 1751 335 1752 335 1753 336 1754 338 1754 338 1747 337 1746 337 1733 336 1732 336 1718 335 1717 335 1702 334 1701 334 1684 333 1683 333 1666 332 1665 332 1648 331 1647 331 1624 330 1623 330 1602 329 1601 329 1576 328 1575 328 1550 327 1549 327 1522 326 1521 326 1493 325 1492 325 1463 324 1462 324 1388 325 1387 325 1376 326 1375 326 1371 327 1370 327 1367 328 1366 328 1364 329 1363 329 1361 330 1360 330 1359 331 1358 331 1357 338 1350 339 1350 340 1349 341 1349 342 1348 351 1348 352 1349 354 1349 356 1351 357 1351 364 1358 364 1359 366 1361 366 1362 367 1363 367 1364 368 1365 368 1366 369 1367 369 1368 370 1369 370 1370 371 1371 371 1372 372 1373 372 1374 373 1375 373 1377 374 1378 374 1379 375 1380 375 1381 376 1382 376 1384 377 1385 377 1386 378 1387 378 1389 379 1390 379 1391 380 1392 380 1394 381 1395 381 1397 382 1398 382 1399 383 1400 383 1402 384 1403 384 1405 385 1406 385 1407 386 1408 386 1410 387 1411 387 1412 388 1413 388 1415 389 1416 389 1418 390 1419 390 1420 391 1421 391 1423 392 1424 392 1426 393 1427 393 1428 394 1429 394 1431 395 1432 395 1434 396 1435 396 1436 397 1437 397 1439 398 1440 398 1441 399 1442 399 1444 400 1445 400 1446 401 1447 401 1449 402 1450 402 1451 403 1452 403 1454 404 1455 404 1456 405 1457 405 1459 406 1460 406 1461 407 1462 407 1464 408 1465 408 1466 409 1467 409 1469 410 1470 410 1471 411 1472 411 1473 412 1474 412 1476 413 1477 413 1478 414 1479 414 1481 415 1482 415 1483 416 1484 416 1485 417 1486 417 1487 418 1488 418 1490 419 1491 419 1492 420 1493 420 1495 421 1496 421 1497 422 1498 422 1499 423 1500 423 1502 424 1503 424 1504 425 1505 425 1506 426 1507 426 1508 427 1509 427 1511 428 1512 428 1513 429 1514 429 1515 430 1516 430 1517 431 1518 431 1519 432 1520 432 1522 433 1523 433 1524 434 1525 434 1526 435 1527 435 1528 436 1529 436 1530 437 1531 437 1532 438 1533 438 1535 439 1536 439 1537 440 1538 440 1539 441 1540 441 1541 442 1542 442 1543 443 1544 443 1545 444 1546 444 1547 445 1548 445 1549 446 1550 446 1551 447 1552 447 1553 448 1554 448 1555 449 1556 449 1557 450 1558 450 1559 451 1560 451 1561 452 1562 452 1563 453 1564 453 1565 454 1566 454 1567 455 1568 455 1569 456 1570 456 1571 457 1572 457 1573 458 1574 458 1575 459 1576 459 1577 461 1579 461 1580 462 1581 462 1582 463 1583 463 1584 464 1585 464 1586 465 1587 465 1588 466 1589 466 1590 468 1592 468 1593 469 1594 469 1595 470 1596 470 1597 471 1598 471 1599 473 1601 473 1602 474 1603 474 1604 475 1605 475 1607 476 1607 477 1608 477 1609 478 1610 478 1612 479 1612 480 1613 480 1615 481 1616 481 1617 483 1617 483 1614 484 1613 484 1610 485 1609 485 1607 486 1606 486 1604 487 1603 487 1600 488 1599 488 1597 489 1596 489 1595 490 1594 490 1592 491 1591 491 1589 492 1588 492 1586 493 1585 493 1583 494 1582 494 1580 495 1579 495 1577 496 1576 496 1574 497 1573 497 1571 498 1570 498 1568 499 1567 499 1565 500 1564 500 1562 501 1561 501 1559 502 1558 502 1556 503 1555 503 1553 504 1552 504 1550 505 1549 505 1547 506 1546 506 1543 507 1542 507 1540 508 1539 508 1537 509 1536 509 1534 510 1533 510 1530 511 1529 511 1527 512 1526 512 1523 513 1522 513 1520 514 1519 514 1516 515 1515 515 1513 516 1512 516 1509 517 1508 517 1506 518 1505 518 1502 519 1501 519 1498 520 1497 520 1494 521 1493 521 1491 522 1490 522 1487 523 1486 523 1483 524 1482 524 1479 525 1478 525 1475 526 1474 526 1470 527 1469 527 1466 528 1465 528 1462 529 1461 529 1458 530 1457 530 1453 531 1452 531 1449 532 1448 532 1444 533 1443 533 1440 534 1439 534 1435 535 1434 535 1430 536 1429 536 1425 537 1424 537 1421 538 1420 538 1416 539 1415 539 1411 540 1410 540 1406 541 1405 541 1401 542 1400 542 1396 543 1395 543 1390 544 1389 544 1385 545 1384 545 1380 546 1379 546 1375 547 1374 547 1369 548 1368 548 1364 549 1363 549 1358 550 1357 550 1353 551 1352 551 1349 552 1348 552 1345 553 1344 553 1341 554 1340 554 1339 555 1338 555 1337 556 1336 556 1335 560 1331 561 1331 562 1330 563 1330 564 1329 Z"/>
<path d="M 568 1382 568 1385 567 1386 567 1389 566 1390 566 1393 565 1394 565 1397 564 1398 564 1402 563 1403 563 1406 562 1407 562 1411 561 1412 561 1415 560 1416 560 1419 559 1420 559 1423 558 1424 558 1427 557 1428 557 1432 556 1433 556 1436 555 1437 555 1440 554 1441 554 1444 553 1445 553 1449 552 1450 552 1453 551 1454 551 1457 550 1458 550 1461 549 1462 549 1465 548 1466 548 1469 547 1470 547 1474 546 1475 546 1478 545 1479 545 1482 544 1483 544 1486 543 1487 543 1490 542 1491 542 1494 541 1495 541 1498 540 1499 540 1502 539 1503 539 1506 538 1507 538 1510 537 1511 537 1513 536 1514 536 1517 535 1518 535 1521 534 1522 534 1525 533 1526 533 1529 532 1530 532 1532 531 1533 531 1536 530 1537 530 1539 529 1540 529 1543 528 1544 528 1547 527 1548 527 1550 526 1551 526 1554 525 1555 525 1556 524 1557 524 1562 523 1563 523 1564 522 1565 522 1568 521 1569 521 1571 520 1572 520 1575 519 1576 519 1579 518 1580 518 1581 517 1582 517 1586 516 1587 516 1588 515 1589 515 1592 514 1593 514 1595 513 1596 513 1599 512 1600 512 1603 511 1604 511 1606 510 1607 510 1610 509 1611 509 1614 508 1615 508 1619 507 1620 507 1623 506 1624 506 1629 505 1630 505 1648 506 1649 506 1655 505 1656 505 1657 504 1658 504 1659 503 1660 503 1661 500 1664 499 1664 497 1666 494 1666 493 1667 488 1667 487 1666 486 1666 485 1665 484 1665 483 1664 482 1664 478 1660 478 1659 476 1657 476 1656 475 1655 475 1654 473 1652 473 1651 472 1650 472 1649 471 1648 471 1647 470 1646 470 1645 469 1644 469 1643 467 1641 467 1640 466 1639 466 1638 465 1637 465 1636 464 1635 464 1634 463 1633 463 1632 462 1631 462 1630 461 1629 461 1628 460 1627 460 1626 459 1625 459 1624 458 1623 458 1622 457 1621 457 1620 456 1619 456 1618 455 1617 455 1616 454 1615 454 1614 453 1613 453 1612 452 1611 452 1610 451 1609 451 1608 450 1607 450 1606 449 1605 449 1604 448 1603 448 1602 447 1601 447 1600 446 1599 446 1598 445 1597 445 1596 444 1595 444 1594 443 1593 443 1592 442 1591 442 1590 441 1589 441 1588 440 1587 440 1586 439 1585 439 1584 438 1583 438 1582 437 1581 437 1580 436 1579 436 1578 435 1577 435 1576 434 1575 434 1574 433 1573 433 1572 432 1571 432 1570 431 1569 431 1567 430 1566 430 1565 429 1564 429 1563 428 1562 428 1561 427 1560 427 1559 426 1558 426 1557 425 1556 425 1555 424 1554 424 1553 423 1552 423 1550 422 1549 422 1548 421 1547 421 1546 420 1545 420 1544 419 1543 419 1542 418 1541 418 1540 417 1539 417 1538 416 1537 416 1535 415 1534 415 1533 414 1532 414 1531 413 1530 413 1529 412 1528 412 1527 411 1526 411 1524 410 1523 410 1522 409 1521 409 1520 408 1519 408 1518 407 1517 407 1515 406 1514 406 1513 405 1512 405 1511 404 1510 404 1509 403 1508 403 1506 402 1505 402 1504 401 1503 401 1502 400 1501 400 1500 399 1499 399 1497 398 1496 398 1495 397 1494 397 1493 396 1492 396 1490 395 1489 395 1488 394 1487 394 1486 393 1485 393 1483 391 1481 391 1479 390 1478 390 1476 389 1475 389 1474 388 1473 388 1472 387 1471 387 1469 386 1468 386 1467 385 1466 385 1464 384 1463 384 1462 383 1461 383 1460 382 1459 382 1457 381 1456 381 1455 380 1454 380 1453 379 1452 379 1450 378 1449 378 1448 377 1447 377 1445 376 1444 376 1443 375 1442 375 1441 374 1440 374 1438 373 1437 373 1436 372 1435 372 1434 371 1433 371 1431 370 1430 370 1429 369 1428 369 1426 368 1425 368 1424 367 1423 367 1422 366 1421 366 1419 365 1418 365 1417 364 1416 364 1415 363 1414 363 1413 362 1412 362 1410 361 1409 361 1408 360 1407 360 1406 359 1405 359 1404 358 1403 358 1401 357 1400 357 1398 356 1397 356 1396 355 1395 355 1394 354 1393 354 1392 353 1391 353 1390 352 1389 352 1388 351 1387 351 1386 349 1386 349 1391 348 1392 348 1399 347 1400 347 1411 346 1412 346 1429 345 1430 345 1512 346 1513 346 1549 347 1550 347 1575 348 1576 348 1597 349 1598 349 1615 350 1616 350 1631 351 1632 351 1647 352 1648 352 1660 353 1661 353 1671 354 1672 354 1683 355 1684 355 1694 356 1695 356 1703 357 1704 357 1711 358 1712 358 1719 359 1720 359 1728 360 1729 360 1736 361 1737 361 1743 362 1744 362 1749 363 1750 363 1756 364 1757 364 1763 365 1764 365 1773 366 1774 365 1775 365 1780 364 1781 364 1783 360 1787 360 1788 359 1789 358 1789 356 1791 352 1791 351 1792 347 1792 346 1791 343 1791 342 1790 341 1790 339 1788 338 1788 336 1786 335 1786 325 1776 324 1776 313 1765 313 1764 296 1747 296 1746 287 1737 287 1736 280 1729 280 1728 273 1721 273 1720 267 1714 267 1713 262 1708 262 1707 257 1702 257 1701 252 1696 252 1695 248 1691 248 1690 243 1685 243 1684 239 1680 239 1679 235 1675 235 1674 231 1670 231 1669 228 1666 228 1665 224 1661 224 1660 220 1656 220 1655 217 1652 217 1651 214 1648 214 1647 210 1643 210 1642 207 1639 207 1638 204 1635 204 1634 200 1630 200 1629 197 1626 197 1625 194 1622 194 1621 190 1617 190 1616 188 1614 188 1613 187 1612 187 1611 185 1609 184 1609 183 1608 183 1606 181 1606 181 1611 182 1612 182 1617 183 1618 183 1625 184 1626 184 1633 185 1634 185 1641 186 1642 186 1649 187 1650 187 1657 188 1658 188 1665 189 1666 189 1673 190 1674 190 1681 191 1682 191 1689 192 1690 192 1698 193 1699 193 1707 194 1708 194 1715 195 1716 195 1724 196 1725 196 1735 197 1736 197 1743 198 1744 198 1752 199 1753 199 1763 200 1764 200 1773 201 1774 201 1785 202 1786 202 1796 203 1797 203 1809 204 1810 204 1823 205 1824 205 1838 206 1839 206 1855 207 1856 207 1869 208 1870 208 1882 209 1883 209 1892 210 1893 210 1900 211 1901 211 1905 212 1906 212 1910 213 1911 213 1912 214 1913 214 1915 215 1916 215 1918 216 1919 216 1928 218 1928 219 1927 222 1927 223 1926 226 1926 227 1925 229 1925 230 1924 232 1924 233 1923 235 1923 236 1922 238 1922 239 1921 241 1921 242 1920 243 1920 244 1919 246 1919 247 1918 249 1918 250 1917 251 1917 252 1916 254 1916 255 1915 257 1915 258 1914 259 1914 260 1913 262 1913 263 1912 264 1912 265 1911 267 1911 268 1910 269 1910 270 1909 271 1909 272 1908 274 1908 275 1907 276 1907 277 1906 279 1906 280 1905 281 1905 282 1904 283 1904 284 1903 285 1903 286 1902 288 1902 289 1901 290 1901 291 1900 292 1900 293 1899 295 1899 296 1898 297 1898 298 1897 299 1897 300 1896 301 1896 302 1895 303 1895 304 1894 306 1894 307 1893 308 1893 309 1892 310 1892 311 1891 312 1891 313 1890 314 1890 315 1889 316 1889 317 1888 319 1888 320 1887 321 1887 322 1886 323 1886 324 1885 325 1885 326 1884 327 1884 328 1883 329 1883 330 1882 331 1882 332 1881 333 1881 334 1880 335 1880 336 1879 338 1879 339 1878 340 1878 341 1877 342 1877 343 1876 344 1876 345 1875 346 1875 347 1874 348 1874 349 1873 350 1873 351 1872 352 1872 353 1871 354 1871 355 1870 356 1870 357 1869 358 1869 359 1868 360 1868 361 1867 362 1867 363 1866 364 1866 365 1865 366 1865 367 1864 368 1864 369 1863 371 1863 373 1861 375 1861 376 1860 377 1860 379 1858 381 1858 382 1857 383 1857 384 1856 385 1856 386 1855 387 1855 388 1854 389 1854 390 1853 391 1853 392 1852 393 1852 395 1850 397 1850 398 1849 399 1849 400 1848 401 1848 402 1847 403 1847 404 1846 405 1846 406 1845 407 1845 409 1843 410 1843 411 1842 412 1842 413 1841 414 1841 415 1840 416 1840 417 1839 418 1839 419 1838 420 1838 421 1837 422 1837 423 1836 424 1836 425 1835 426 1835 427 1834 428 1834 429 1833 430 1833 431 1832 432 1832 433 1831 434 1831 435 1830 436 1830 437 1829 438 1829 439 1828 440 1828 441 1827 442 1827 443 1826 444 1826 445 1825 446 1825 447 1824 448 1824 449 1823 450 1823 451 1822 452 1822 453 1821 454 1821 455 1820 456 1820 457 1819 458 1819 459 1818 460 1818 461 1817 462 1817 464 1815 466 1815 468 1813 469 1813 470 1812 471 1812 472 1811 473 1811 474 1810 475 1810 476 1809 477 1809 478 1808 479 1808 480 1807 481 1807 482 1806 483 1806 484 1805 485 1805 486 1804 487 1804 488 1803 489 1803 490 1802 491 1802 492 1801 493 1801 494 1800 495 1800 496 1799 497 1799 498 1798 499 1798 500 1797 501 1797 502 1796 503 1796 504 1795 505 1795 506 1794 507 1794 508 1793 509 1793 510 1792 511 1792 512 1791 513 1791 515 1789 516 1789 517 1788 519 1788 521 1786 522 1786 523 1785 524 1785 525 1784 526 1784 527 1783 529 1783 531 1781 532 1781 533 1780 535 1780 537 1778 538 1778 539 1777 540 1777 541 1776 542 1776 543 1775 544 1775 545 1774 546 1774 547 1773 548 1773 549 1772 550 1772 552 1770 554 1770 555 1769 556 1769 558 1767 560 1767 561 1766 562 1766 563 1765 564 1765 565 1764 566 1764 568 1762 570 1762 571 1761 572 1761 574 1759 575 1759 576 1758 577 1758 578 1757 580 1757 582 1755 583 1755 584 1754 585 1754 586 1753 588 1753 590 1751 591 1751 592 1750 593 1750 594 1749 595 1749 596 1748 597 1748 598 1747 599 1747 600 1746 601 1746 602 1745 604 1745 606 1743 607 1743 608 1742 609 1742 610 1741 611 1741 612 1740 613 1740 614 1739 615 1739 616 1738 618 1738 619 1737 620 1737 622 1735 623 1735 624 1734 626 1734 627 1733 628 1733 629 1732 631 1732 632 1731 632 1728 631 1727 631 1723 630 1722 630 1718 629 1717 629 1713 628 1712 628 1708 627 1707 627 1703 626 1702 626 1698 625 1697 625 1692 624 1691 624 1687 623 1686 623 1681 622 1680 622 1675 621 1674 621 1670 620 1669 620 1664 619 1663 619 1657 618 1656 618 1652 617 1651 617 1646 616 1645 616 1640 615 1639 615 1633 614 1632 614 1627 613 1626 613 1621 612 1620 612 1615 611 1614 611 1608 610 1607 610 1602 609 1601 609 1596 608 1595 608 1589 607 1588 607 1583 606 1582 606 1576 605 1575 605 1570 604 1569 604 1564 603 1563 603 1558 602 1557 602 1552 601 1551 601 1545 600 1544 600 1539 599 1538 599 1533 598 1532 598 1528 597 1527 597 1520 596 1519 596 1515 595 1514 595 1509 594 1508 594 1503 593 1502 593 1496 592 1495 592 1491 591 1490 591 1485 590 1484 590 1480 589 1479 589 1474 588 1473 588 1468 587 1467 587 1462 586 1461 586 1456 585 1455 585 1451 584 1450 584 1446 583 1445 583 1440 582 1439 582 1435 581 1434 581 1430 580 1429 580 1424 579 1423 579 1419 578 1418 578 1414 577 1413 577 1410 576 1409 576 1405 575 1404 575 1400 574 1399 574 1395 573 1394 573 1390 572 1389 572 1386 571 1385 571 1382 Z"/>
<path d="M 363 1458 366 1461 366 1462 367 1463 367 1464 369 1466 369 1468 370 1469 370 1470 371 1471 371 1472 372 1473 372 1474 373 1475 373 1476 374 1477 374 1479 375 1480 375 1481 376 1482 376 1483 377 1484 377 1486 378 1487 378 1488 379 1489 379 1491 380 1492 380 1493 381 1494 381 1495 382 1496 382 1498 383 1499 383 1500 384 1501 384 1502 385 1503 385 1505 386 1506 386 1507 387 1508 387 1509 388 1510 388 1511 389 1512 389 1514 390 1515 390 1516 391 1517 391 1518 392 1519 392 1520 393 1521 393 1523 394 1524 394 1525 395 1526 395 1527 396 1528 396 1529 397 1530 397 1532 398 1533 398 1534 399 1535 399 1536 400 1537 400 1538 401 1539 401 1540 402 1541 402 1542 403 1543 403 1545 404 1546 404 1547 405 1548 405 1549 406 1550 406 1551 407 1552 407 1553 408 1554 408 1555 409 1556 409 1558 410 1559 410 1560 411 1561 411 1562 412 1563 412 1564 413 1565 413 1566 414 1567 414 1568 415 1569 415 1570 416 1571 416 1572 417 1573 417 1574 418 1575 418 1577 419 1578 419 1579 420 1580 420 1581 421 1582 421 1583 422 1584 422 1585 423 1586 423 1587 424 1588 424 1589 425 1590 425 1591 426 1592 426 1593 427 1594 427 1595 428 1596 428 1597 429 1598 429 1599 430 1600 430 1601 431 1602 431 1603 432 1604 432 1605 433 1606 433 1607 434 1608 434 1609 435 1610 435 1611 436 1612 436 1613 437 1614 437 1615 438 1616 438 1617 439 1618 439 1619 440 1620 440 1621 441 1622 441 1623 442 1624 442 1625 443 1626 443 1627 444 1628 444 1629 445 1630 445 1631 446 1632 446 1633 447 1634 447 1635 448 1636 448 1637 449 1638 449 1639 450 1640 450 1641 451 1642 451 1643 452 1644 452 1645 453 1646 453 1647 455 1649 455 1650 456 1651 456 1652 457 1653 457 1654 458 1655 458 1656 459 1657 459 1658 461 1660 461 1661 463 1663 463 1664 465 1666 465 1667 473 1675 474 1675 475 1676 476 1676 478 1678 480 1678 481 1677 484 1680 498 1680 499 1679 501 1679 502 1678 503 1678 504 1677 505 1677 506 1676 507 1676 515 1668 515 1667 516 1666 516 1665 517 1664 517 1663 518 1662 518 1660 519 1659 519 1656 520 1655 520 1638 521 1637 521 1628 522 1627 522 1622 523 1621 523 1618 524 1617 524 1614 525 1613 525 1610 526 1609 526 1606 527 1605 527 1603 528 1602 528 1599 529 1598 529 1596 530 1595 530 1592 531 1591 531 1589 532 1588 532 1585 533 1584 533 1582 534 1581 534 1578 535 1577 535 1575 536 1574 536 1571 537 1570 537 1568 538 1567 538 1564 539 1563 539 1561 540 1560 540 1557 541 1556 541 1554 542 1553 542 1550 543 1549 543 1547 544 1546 544 1543 545 1542 545 1540 546 1539 546 1536 547 1535 547 1532 548 1531 548 1528 549 1527 549 1524 550 1523 550 1521 551 1520 551 1517 552 1516 552 1513 553 1512 553 1509 554 1508 554 1505 555 1504 555 1501 556 1500 556 1497 557 1496 557 1493 558 1492 558 1488 557 1487 557 1486 558 1485 558 1483 559 1482 560 1482 561 1481 561 1478 562 1477 562 1473 563 1472 563 1470 564 1469 564 1466 565 1465 565 1463 566 1462 566 1461 567 1460 569 1460 570 1461 570 1462 571 1463 571 1466 572 1467 572 1470 573 1471 573 1476 574 1477 574 1481 575 1482 575 1487 576 1488 576 1492 577 1493 577 1497 578 1498 578 1503 579 1504 579 1509 580 1510 580 1516 581 1517 581 1522 582 1523 582 1528 583 1529 583 1534 584 1535 584 1540 585 1541 585 1546 586 1547 586 1552 587 1553 587 1559 588 1560 588 1565 589 1566 589 1572 590 1573 590 1578 591 1579 591 1584 592 1585 592 1590 593 1591 593 1596 594 1597 594 1602 595 1603 595 1609 596 1610 596 1615 597 1616 597 1622 598 1623 598 1628 599 1629 599 1635 600 1636 600 1641 601 1642 601 1647 602 1648 602 1653 603 1654 603 1659 604 1660 604 1665 605 1666 605 1671 606 1672 606 1677 607 1678 607 1682 608 1683 608 1687 609 1688 609 1693 610 1694 610 1698 611 1699 611 1704 612 1705 612 1709 613 1710 613 1720 612 1721 612 1722 609 1725 608 1725 607 1726 606 1726 605 1727 604 1727 603 1728 602 1728 601 1729 600 1729 598 1731 597 1731 596 1732 595 1732 594 1733 593 1733 592 1734 591 1734 590 1735 588 1735 587 1736 586 1736 585 1737 584 1737 583 1738 582 1738 581 1739 580 1739 579 1740 578 1740 577 1741 576 1741 575 1742 574 1742 572 1744 571 1744 570 1745 569 1745 568 1746 567 1746 566 1747 565 1747 564 1748 563 1748 562 1749 561 1749 560 1750 559 1750 558 1751 557 1751 556 1752 555 1752 554 1753 553 1753 552 1754 551 1754 550 1755 549 1755 548 1756 547 1756 546 1757 545 1757 544 1758 543 1758 542 1759 541 1759 540 1760 539 1760 538 1761 537 1761 536 1762 535 1762 534 1763 533 1763 532 1764 531 1764 530 1765 529 1765 528 1766 527 1766 526 1767 525 1767 524 1768 523 1768 522 1769 521 1769 520 1770 519 1770 518 1771 517 1771 516 1772 515 1772 514 1773 513 1773 512 1774 511 1774 509 1776 508 1776 507 1777 506 1777 505 1778 504 1778 503 1779 502 1779 501 1780 500 1780 499 1781 498 1781 497 1782 496 1782 495 1783 494 1783 493 1784 492 1784 491 1785 490 1785 489 1786 488 1786 487 1787 486 1787 485 1788 484 1788 483 1789 482 1789 481 1790 480 1790 479 1791 478 1791 477 1792 476 1792 475 1793 474 1793 473 1794 472 1794 471 1795 470 1795 469 1796 468 1796 467 1797 466 1797 465 1798 464 1798 463 1799 462 1799 460 1801 459 1801 458 1802 457 1802 456 1803 455 1803 454 1804 453 1804 452 1805 451 1805 450 1806 449 1806 448 1807 447 1807 446 1808 445 1808 444 1809 443 1809 442 1810 441 1810 440 1811 439 1811 438 1812 437 1812 436 1813 435 1813 434 1814 433 1814 432 1815 431 1815 430 1816 429 1816 428 1817 427 1817 426 1818 425 1818 424 1819 423 1819 422 1820 421 1820 420 1821 419 1821 418 1822 417 1822 416 1823 415 1823 414 1824 413 1824 412 1825 411 1825 410 1826 409 1826 408 1827 407 1827 406 1828 405 1828 404 1829 403 1829 402 1830 401 1830 399 1832 398 1832 397 1833 396 1833 395 1834 394 1834 393 1835 392 1835 391 1836 390 1836 389 1837 388 1837 387 1838 386 1838 385 1839 384 1839 383 1840 382 1840 381 1841 380 1841 379 1842 378 1842 377 1843 376 1843 375 1844 374 1844 373 1845 372 1845 371 1846 369 1846 368 1847 367 1847 366 1848 365 1848 364 1849 363 1849 362 1850 361 1850 360 1851 359 1851 358 1852 357 1852 356 1853 355 1853 354 1854 353 1854 352 1855 351 1855 350 1856 349 1856 348 1857 347 1857 346 1858 345 1858 344 1859 343 1859 342 1860 341 1860 340 1861 339 1861 338 1862 337 1862 336 1863 335 1863 334 1864 333 1864 332 1865 330 1865 329 1866 328 1866 327 1867 326 1867 325 1868 324 1868 323 1869 322 1869 321 1870 320 1870 319 1871 318 1871 317 1872 316 1872 315 1873 314 1873 313 1874 311 1874 310 1875 309 1875 308 1876 307 1876 306 1877 305 1877 304 1878 303 1878 302 1879 301 1879 300 1880 298 1880 297 1881 296 1881 295 1882 294 1882 293 1883 292 1883 291 1884 289 1884 288 1885 287 1885 286 1886 285 1886 284 1887 283 1887 282 1888 280 1888 279 1889 278 1889 277 1890 276 1890 275 1891 274 1891 273 1892 271 1892 270 1893 269 1893 268 1894 266 1894 265 1895 264 1895 263 1896 262 1896 261 1897 259 1897 258 1898 257 1898 256 1899 254 1899 253 1900 252 1900 251 1901 249 1901 248 1902 246 1902 245 1903 244 1903 244 1904 243 1905 242 1905 241 1906 240 1905 238 1905 237 1906 230 1906 227 1903 227 1901 226 1900 226 1896 225 1895 225 1889 224 1888 224 1880 223 1879 223 1869 222 1868 222 1855 221 1854 221 1839 220 1838 220 1822 219 1821 219 1808 218 1807 218 1795 217 1794 217 1783 216 1782 216 1772 215 1771 215 1762 214 1761 214 1752 213 1751 213 1743 212 1742 212 1733 211 1732 211 1723 210 1722 210 1713 209 1712 209 1704 208 1703 208 1697 207 1696 207 1689 206 1688 206 1681 205 1680 205 1669 207 1667 208 1667 210 1669 211 1669 212 1670 212 1671 217 1676 217 1677 221 1681 221 1682 225 1686 225 1687 229 1691 229 1692 233 1696 233 1697 236 1700 236 1701 241 1706 241 1707 242 1707 244 1709 244 1710 246 1712 246 1713 251 1718 251 1719 255 1723 256 1723 257 1724 257 1725 258 1726 258 1727 264 1733 264 1734 271 1741 271 1742 272 1742 273 1743 273 1744 279 1750 279 1751 288 1760 288 1761 320 1793 321 1793 325 1797 326 1797 328 1799 329 1799 330 1800 331 1800 333 1802 335 1802 336 1803 337 1803 338 1804 341 1804 342 1805 356 1805 357 1804 359 1804 360 1803 362 1803 363 1802 364 1802 366 1800 367 1800 374 1793 374 1792 375 1791 375 1790 376 1789 376 1788 377 1787 377 1786 378 1785 378 1782 379 1781 379 1776 380 1775 380 1765 379 1764 379 1755 378 1754 378 1748 377 1747 377 1741 376 1740 376 1734 375 1733 375 1727 374 1726 374 1720 373 1719 373 1711 372 1710 372 1702 371 1701 371 1692 370 1691 370 1681 369 1680 369 1669 368 1668 368 1658 367 1657 367 1647 366 1646 366 1633 365 1632 365 1617 364 1616 364 1597 363 1596 363 1575 362 1574 362 1548 361 1547 361 1509 360 1508 360 1466 361 1465 361 1460 Z"/>
<path d="M 941 475 940 476 938 476 937 477 936 477 935 478 934 478 926 486 926 487 925 488 925 489 924 490 924 491 923 492 923 495 922 496 922 501 921 502 921 514 920 515 920 528 919 529 919 540 918 541 918 550 917 551 917 560 916 561 916 568 915 569 915 577 914 578 914 584 913 585 913 595 912 596 912 597 911 598 911 603 910 604 910 609 909 610 909 616 908 617 908 622 907 623 907 627 906 628 906 633 905 634 905 638 904 639 904 643 903 644 903 648 902 649 902 652 901 653 901 657 900 658 900 662 899 663 899 666 898 667 898 673 897 674 897 676 896 677 896 678 895 679 895 682 894 683 894 686 893 687 893 690 892 691 892 694 891 695 891 698 890 699 890 702 889 703 889 705 888 706 888 709 887 710 887 712 886 713 886 716 885 717 885 719 884 720 884 722 883 723 883 726 882 727 882 729 881 730 881 732 880 733 880 735 879 736 879 738 878 739 878 741 877 742 877 744 876 745 876 746 875 747 875 749 874 750 874 752 873 753 873 755 872 756 872 758 871 759 871 760 870 761 870 763 869 764 869 765 868 766 868 768 867 769 867 770 866 771 866 773 865 774 865 775 864 776 864 777 863 778 863 780 862 781 862 782 861 783 861 784 860 785 860 787 859 788 859 789 858 790 858 791 857 792 857 793 856 794 856 795 855 796 855 797 854 798 854 799 853 800 853 801 852 802 852 803 851 804 851 805 850 806 850 807 849 808 849 809 848 810 848 811 847 812 847 813 845 815 845 816 844 817 844 818 843 819 843 820 841 822 841 823 840 824 840 825 838 827 838 828 836 830 836 831 835 832 835 833 834 834 834 835 830 839 830 840 828 842 828 843 825 846 825 847 821 851 821 852 815 858 815 859 805 869 804 869 798 875 797 875 794 878 793 878 791 880 790 880 788 882 787 882 785 884 784 884 783 885 782 885 781 886 780 886 779 887 778 887 777 888 776 888 775 889 774 889 773 890 772 890 771 891 769 891 768 892 767 892 766 893 764 893 763 894 761 894 760 895 758 895 757 896 754 896 752 898 745 898 744 899 738 899 737 900 725 900 724 901 712 901 711 900 698 900 697 899 690 899 689 898 683 898 682 897 677 897 676 896 672 896 671 895 668 895 667 894 663 894 662 893 659 893 658 892 655 892 654 891 651 891 650 890 647 890 646 889 644 889 643 888 641 888 640 887 637 887 636 886 634 886 633 885 631 885 630 884 628 884 627 883 622 883 621 882 620 882 619 881 619 880 617 880 616 879 614 879 613 878 612 878 611 877 609 877 608 876 606 876 605 875 603 875 602 874 601 874 600 873 598 873 597 872 596 872 595 871 593 871 592 870 591 870 590 869 589 869 588 868 586 868 585 867 584 867 583 866 582 866 581 865 580 865 579 864 578 864 577 863 575 863 574 862 573 862 572 861 571 861 570 860 569 860 568 859 567 859 566 858 565 858 564 857 563 857 562 856 561 856 560 855 559 855 558 854 557 854 556 853 555 853 554 852 553 852 552 851 551 851 549 849 548 849 547 848 546 848 545 847 544 847 543 846 542 846 540 844 539 844 538 843 537 843 536 842 535 842 534 841 533 841 531 839 530 839 529 838 528 838 526 836 525 836 524 835 523 835 521 833 520 833 519 832 518 832 516 830 515 830 514 829 513 829 511 827 510 827 508 825 507 825 505 823 504 823 503 822 502 822 500 820 499 820 497 818 496 818 494 816 493 816 491 814 490 814 487 811 486 811 484 809 483 809 481 807 480 807 478 805 477 805 474 802 473 802 471 800 470 800 468 798 467 798 464 795 463 795 461 793 460 793 457 790 456 790 453 787 452 787 449 784 448 784 445 781 444 781 441 778 440 778 437 775 436 775 433 772 432 772 431 771 430 771 428 769 427 769 426 768 426 767 424 765 423 765 420 762 419 762 416 759 415 759 412 756 411 756 408 753 407 753 404 750 403 750 400 747 399 747 396 744 395 744 392 741 391 741 388 738 387 738 384 735 383 735 381 733 380 733 378 731 377 731 375 729 374 729 373 728 372 728 371 727 370 727 369 726 367 726 366 725 364 725 363 724 351 724 350 725 347 725 346 726 345 726 344 727 343 727 342 728 341 728 338 731 337 731 336 732 336 733 333 736 333 737 332 738 332 739 331 740 331 741 330 742 330 745 329 746 329 757 330 758 330 761 331 762 331 763 332 764 332 765 333 766 333 767 335 769 335 770 341 776 342 776 345 779 346 779 347 780 348 780 350 782 352 782 355 785 356 785 357 786 358 786 359 787 360 787 361 788 362 788 364 790 365 790 366 791 367 791 369 793 370 793 371 794 372 794 374 796 375 796 377 798 378 798 380 800 381 800 383 802 384 802 386 804 387 804 389 806 390 806 392 808 393 808 395 810 396 810 398 812 399 812 400 813 401 813 402 814 403 814 404 815 404 816 405 817 406 817 408 819 409 819 411 821 412 821 414 823 415 823 417 825 418 825 420 827 421 827 424 830 425 830 427 832 428 832 430 834 431 834 434 837 435 837 437 839 438 839 440 841 441 841 443 843 444 843 446 845 447 845 449 847 450 847 452 849 453 849 455 851 456 851 458 853 459 853 461 855 462 855 464 857 465 857 466 858 467 858 469 860 470 860 472 862 473 862 475 864 476 864 477 865 478 865 480 867 481 867 483 869 484 869 485 870 486 870 488 872 489 872 491 874 492 874 493 875 496 875 498 877 498 878 499 878 500 879 501 879 503 881 504 881 505 882 506 882 507 883 508 883 510 885 511 885 512 886 513 886 514 887 515 887 516 888 517 888 519 890 520 890 521 891 522 891 523 892 524 892 525 893 526 893 528 895 529 895 530 896 531 896 532 897 533 897 534 898 535 898 536 899 537 899 538 900 539 900 540 901 541 901 542 902 543 902 544 903 545 903 546 904 548 904 549 905 550 905 551 906 552 906 553 907 554 907 555 908 556 908 557 909 561 909 563 911 563 912 565 912 566 913 567 913 568 914 569 914 570 915 572 915 573 916 574 916 575 917 577 917 578 918 579 918 580 919 581 919 582 920 584 920 585 921 586 921 587 922 589 922 590 923 592 923 593 924 594 924 595 925 597 925 598 926 600 926 601 927 602 927 603 928 605 928 606 929 608 929 609 930 611 930 612 931 614 931 615 932 617 932 618 933 620 933 621 934 623 934 624 935 626 935 627 936 630 936 631 937 633 937 634 938 637 938 638 939 640 939 641 940 644 940 645 941 648 941 649 942 652 942 653 943 656 943 657 944 660 944 661 945 665 945 666 946 670 946 671 947 677 947 678 948 684 948 685 949 692 949 693 950 703 950 704 951 738 951 739 950 748 950 749 949 755 949 756 948 760 948 761 947 765 947 766 946 769 946 770 945 773 945 774 944 776 944 777 943 778 943 779 942 780 942 781 941 784 941 785 940 787 940 788 939 789 939 790 938 792 938 793 937 794 937 795 936 796 936 797 935 798 935 799 934 800 934 801 933 802 933 803 932 804 932 805 931 806 931 807 930 808 930 810 928 811 928 812 927 813 927 815 925 816 925 818 923 819 923 822 920 823 920 826 917 827 917 830 914 831 914 838 907 839 907 849 897 849 896 857 888 857 887 861 883 861 882 864 879 864 878 867 875 867 874 869 872 869 871 871 869 871 868 873 866 873 865 875 863 875 862 877 860 877 859 878 858 878 857 880 855 880 854 881 853 881 852 883 850 883 849 884 848 884 847 885 846 885 845 887 843 887 842 888 841 888 840 889 839 889 838 890 837 890 836 891 835 891 834 892 833 892 831 893 830 893 829 895 827 895 826 896 825 896 824 897 823 897 822 898 821 898 820 899 819 899 818 900 817 900 815 901 814 901 813 902 812 902 811 903 810 903 808 904 807 904 806 905 805 905 804 906 803 906 801 907 800 907 799 908 798 908 796 909 795 909 794 910 793 910 791 911 790 911 789 912 788 912 786 913 785 913 784 914 783 914 781 915 780 915 778 916 777 916 776 917 775 917 773 918 772 918 770 919 769 919 767 920 766 920 764 921 763 921 761 922 760 922 758 923 757 923 755 924 754 924 752 925 751 925 749 926 748 926 746 927 745 927 742 928 741 928 739 929 738 929 736 930 735 930 732 931 731 931 729 932 728 932 725 933 724 933 722 934 721 934 718 935 717 935 714 936 713 936 711 937 710 937 707 938 706 938 703 939 702 939 699 940 698 940 695 941 694 941 691 942 690 942 684 944 682 944 679 945 678 945 675 946 674 946 670 947 669 947 665 948 664 948 661 949 660 949 656 950 655 950 651 951 650 951 646 952 645 952 641 953 640 953 635 954 634 954 630 955 629 955 624 956 623 956 618 957 617 957 613 958 612 958 603 960 601 960 596 961 595 961 589 962 588 962 582 963 581 963 575 964 574 964 568 965 567 965 561 966 560 966 553 967 552 967 545 968 544 968 537 969 536 969 528 970 527 970 519 971 518 971 496 970 495 970 492 969 491 969 489 968 488 968 487 966 485 966 484 961 479 960 479 958 477 956 477 955 476 954 476 953 475 Z"/>
<path d="M 945 488 946 487 948 487 949 488 951 488 952 489 953 489 955 491 955 492 957 494 957 507 956 508 956 517 955 518 955 527 954 528 954 535 953 536 953 543 952 544 952 551 951 552 951 559 950 560 950 565 949 566 949 573 948 574 948 580 947 581 947 586 946 587 946 591 945 592 945 599 944 600 944 605 943 606 943 611 942 612 942 615 941 616 941 622 940 623 940 627 939 628 939 633 938 634 938 638 937 639 937 643 936 644 936 647 935 648 935 653 934 654 934 658 933 659 933 662 932 663 932 666 931 667 931 671 930 672 930 675 929 676 929 679 928 680 928 684 927 685 927 687 926 688 926 692 925 693 925 695 924 696 924 700 923 701 923 703 922 704 922 707 921 708 921 711 920 712 920 715 919 716 919 719 918 720 918 722 917 723 917 725 916 726 916 730 915 731 915 732 914 733 914 735 913 736 913 739 912 740 912 742 911 743 911 745 910 746 910 748 909 749 909 751 908 752 908 755 907 756 907 757 906 758 906 761 905 762 905 763 904 764 904 766 903 767 903 769 902 770 902 772 901 773 901 775 900 776 900 777 899 778 899 780 898 781 898 783 897 784 897 785 896 786 896 788 895 789 895 790 894 791 894 792 893 793 893 795 892 796 892 797 891 798 891 799 890 800 890 802 889 803 889 804 888 805 888 807 887 808 887 809 886 810 886 811 885 812 885 813 884 814 884 815 883 816 883 817 882 818 882 819 881 820 881 821 880 822 880 823 879 824 879 825 878 826 878 827 877 828 877 829 876 830 876 831 875 832 875 833 874 834 874 835 873 836 873 837 872 838 872 839 870 841 870 842 869 843 869 844 867 846 867 847 866 848 866 849 864 851 864 852 862 854 862 855 861 856 861 857 859 859 859 860 857 862 857 863 854 866 854 867 851 870 851 871 848 874 848 875 843 880 843 881 823 901 822 901 819 904 818 904 814 908 813 908 810 911 809 911 807 913 806 913 805 914 804 914 802 916 801 916 800 917 799 917 798 918 797 918 795 920 794 920 793 921 792 921 791 922 790 922 789 923 787 923 786 924 785 924 784 925 782 925 781 926 780 926 779 927 778 927 777 928 774 928 773 929 771 929 770 930 768 930 767 931 764 931 763 932 760 932 759 933 755 933 754 934 749 934 748 935 741 935 740 936 702 936 701 935 693 935 692 934 685 934 684 933 679 933 678 932 673 932 672 931 668 931 667 930 664 930 663 929 659 929 658 928 655 928 654 927 651 927 650 926 648 926 647 925 643 925 642 924 640 924 639 923 636 923 635 922 632 922 631 921 630 921 629 920 626 920 625 919 624 919 623 918 621 918 620 917 618 917 617 916 614 916 613 915 612 915 611 914 608 914 607 913 606 913 605 912 603 912 602 911 600 911 599 910 598 910 597 909 596 909 595 908 593 908 592 907 590 907 589 906 588 906 587 905 586 905 585 904 584 904 583 903 581 903 580 902 579 902 578 901 576 901 575 900 574 900 573 899 572 899 571 898 569 898 567 896 565 896 564 895 563 895 562 894 561 894 560 893 558 893 556 891 554 891 553 890 552 890 551 889 550 889 549 888 548 888 547 887 546 887 545 886 544 886 543 885 542 885 540 883 538 883 537 882 536 882 534 880 533 880 532 879 531 879 530 878 529 878 528 877 527 877 526 876 525 876 524 875 523 875 521 873 520 873 519 872 518 872 516 870 515 870 514 869 513 869 511 867 510 867 509 866 508 866 507 865 506 865 505 864 504 864 503 863 502 863 500 861 499 861 497 859 496 859 495 858 494 858 492 856 491 856 489 854 488 854 487 853 486 853 484 851 483 851 481 849 480 849 479 848 478 848 476 846 475 846 473 844 472 844 470 842 469 842 467 840 466 840 464 838 463 838 461 836 460 836 458 834 457 834 455 832 454 832 452 830 451 830 449 828 448 828 446 826 445 826 443 824 442 824 439 821 438 821 436 819 435 819 433 817 432 817 430 815 429 815 426 812 425 812 423 810 422 810 420 808 419 808 417 806 416 806 414 804 413 804 411 802 410 802 407 799 406 799 404 797 403 797 401 795 400 795 397 792 396 792 395 791 394 791 392 789 391 789 389 787 388 787 385 784 384 784 383 783 382 783 381 782 380 782 377 779 376 779 375 778 374 778 373 777 372 777 371 776 370 776 367 773 366 773 365 772 364 772 363 771 362 771 361 770 360 770 359 769 358 769 357 768 356 768 355 767 354 767 353 766 352 766 351 765 350 765 344 759 344 758 343 757 343 755 342 754 342 749 343 748 343 746 344 745 344 744 349 739 350 739 351 738 353 738 354 737 359 737 360 738 362 738 363 739 364 739 366 741 367 741 368 742 368 743 369 743 372 746 373 746 375 748 376 748 379 751 380 751 384 755 385 755 387 757 388 757 390 759 391 759 392 760 392 761 393 761 395 763 396 763 398 765 399 765 400 766 400 767 401 767 403 769 404 769 407 772 408 772 411 775 412 775 416 779 417 779 421 783 422 783 424 785 425 785 429 789 430 789 432 791 433 791 437 795 438 795 440 797 441 797 444 800 445 800 448 803 449 803 451 805 452 805 456 809 457 809 459 811 460 811 462 813 463 813 465 815 466 815 469 818 470 818 472 820 473 820 476 823 477 823 478 824 479 824 482 827 483 827 485 829 486 829 488 831 489 831 491 833 492 833 493 834 494 834 496 836 497 836 499 838 500 838 502 840 503 840 504 841 505 841 507 843 508 843 510 845 511 845 512 846 513 846 515 848 516 848 517 849 518 849 520 851 521 851 522 852 523 852 525 854 526 854 527 855 528 855 529 856 530 856 531 857 532 857 534 859 535 859 536 860 537 860 538 861 539 861 541 863 543 863 545 865 546 865 547 866 548 866 549 867 550 867 551 868 552 868 553 869 554 869 555 870 556 870 557 871 558 871 559 872 560 872 561 873 562 873 563 874 564 874 565 875 567 875 568 876 569 876 570 877 571 877 572 878 573 878 574 879 575 879 576 880 577 880 578 881 580 881 581 882 582 882 583 883 584 883 585 884 587 884 588 885 589 885 590 886 591 886 592 887 594 887 595 888 596 888 597 889 599 889 600 890 602 890 603 891 604 891 605 892 607 892 608 893 610 893 611 894 612 894 613 895 615 895 616 896 618 896 619 897 621 897 622 898 623 898 624 899 627 899 628 900 631 900 632 901 633 901 634 902 637 902 638 903 640 903 641 904 644 904 645 905 647 905 648 906 651 906 652 907 655 907 656 908 659 908 660 909 663 909 664 910 669 910 670 911 674 911 675 912 679 912 680 913 687 913 688 914 695 914 696 915 708 915 709 916 727 916 728 915 740 915 741 914 747 914 748 913 751 913 752 912 757 912 758 911 761 911 762 910 764 910 765 909 767 909 768 908 770 908 771 907 772 907 773 906 775 906 776 905 778 905 779 904 780 904 781 903 782 903 783 902 784 902 785 901 786 901 787 900 788 900 790 898 791 898 792 897 793 897 794 896 795 896 796 895 797 895 800 892 801 892 804 889 805 889 809 885 810 885 814 881 815 881 815 880 816 879 817 879 823 873 823 872 824 871 825 871 825 870 832 863 832 862 836 858 836 857 839 854 839 853 842 850 842 849 844 847 844 846 847 843 847 842 848 841 848 840 850 838 850 837 851 836 851 835 853 833 853 832 855 830 855 829 856 828 856 827 858 825 858 824 859 823 859 822 860 821 860 820 861 819 861 818 862 817 862 816 863 815 863 814 865 812 865 810 866 809 866 808 867 807 867 806 869 804 869 803 870 802 870 800 871 799 871 798 872 797 872 796 873 795 873 794 874 793 874 792 875 791 875 789 876 788 876 787 877 786 877 784 878 783 878 782 879 781 879 780 880 779 880 777 881 776 881 775 882 774 882 772 883 771 883 770 884 769 884 767 885 766 885 764 886 763 886 762 887 761 887 759 888 758 888 756 889 755 889 754 890 753 890 751 891 750 891 748 892 747 892 744 893 743 893 742 894 741 894 739 895 738 895 736 896 735 896 732 897 731 897 730 898 729 898 726 899 725 899 723 900 722 900 720 901 719 901 716 902 715 902 712 903 711 903 709 904 708 904 705 905 704 905 701 906 700 906 698 907 697 907 693 908 692 908 690 909 689 909 686 910 685 910 682 911 681 911 678 912 677 912 674 913 673 913 669 914 668 914 664 915 663 915 660 916 659 916 656 917 655 917 651 918 650 918 646 919 645 919 640 920 639 920 635 921 634 921 630 922 629 922 624 923 623 923 619 924 618 924 613 925 612 925 608 926 607 926 600 927 599 927 593 928 592 928 587 929 586 929 579 930 578 930 571 931 570 931 562 932 561 932 552 933 551 933 544 934 543 934 531 935 530 935 516 936 515 936 496 937 495 937 493 942 488 Z"/>
<path d="M 421 276 420 277 417 277 416 278 415 278 414 279 413 279 412 280 411 280 403 288 403 289 402 290 402 291 401 292 401 303 400 304 398 304 398 308 399 309 399 313 400 313 401 314 401 315 402 316 402 324 403 325 403 327 404 328 404 329 405 330 405 332 406 333 406 335 407 336 407 337 408 338 408 340 409 341 409 342 410 343 410 345 411 346 411 347 412 348 412 349 413 350 413 352 414 353 414 354 415 355 415 357 416 358 416 359 417 360 417 362 418 363 418 364 419 365 419 367 420 368 420 369 421 370 421 372 422 373 422 374 423 375 423 377 424 378 424 380 425 381 425 383 426 384 426 385 427 386 427 388 428 389 428 391 429 392 429 394 430 395 430 397 431 398 431 400 432 401 432 402 433 403 433 405 434 406 434 408 435 409 435 411 436 412 436 414 437 415 437 417 438 418 438 421 439 422 439 424 440 425 440 427 441 428 441 430 442 431 442 433 443 434 443 436 444 437 444 439 445 440 445 442 446 443 446 445 447 446 447 448 448 449 448 451 449 452 449 454 450 455 450 457 451 458 451 460 452 461 452 463 453 464 453 467 454 468 454 470 455 471 455 473 456 474 456 476 457 477 457 479 458 480 458 482 459 483 459 485 460 486 460 488 461 489 461 491 462 492 462 494 463 495 463 497 464 498 464 500 465 501 465 503 466 504 466 506 467 507 467 509 468 510 468 512 469 513 469 515 470 516 470 518 471 519 471 521 472 522 472 524 473 525 473 527 474 528 474 530 475 531 475 533 476 534 476 536 477 537 477 538 478 539 478 541 479 542 479 544 480 545 480 547 481 548 481 549 482 550 482 552 483 553 483 555 484 556 484 557 485 558 485 560 486 561 486 562 487 563 487 565 488 566 488 568 489 569 489 570 490 571 490 573 491 574 491 575 492 576 492 578 493 579 493 581 494 582 494 583 495 584 495 586 496 587 496 588 497 589 497 590 498 591 498 593 499 594 499 595 500 596 500 598 501 599 501 600 502 601 502 602 503 603 503 604 504 605 504 607 505 608 505 609 506 610 506 611 507 612 507 613 509 615 509 616 511 618 512 618 513 619 513 620 514 621 515 621 516 622 516 623 518 625 519 625 520 626 521 626 522 627 524 627 525 628 528 628 529 629 536 629 537 628 540 628 541 627 542 627 543 626 544 626 545 625 546 625 548 623 549 623 551 621 551 620 553 618 553 617 555 615 555 613 556 612 556 610 557 609 557 597 556 596 556 593 555 592 555 590 554 589 554 588 553 587 553 585 552 584 552 583 551 582 551 581 550 580 550 579 549 578 549 576 548 575 548 574 547 573 547 572 546 571 546 570 545 569 545 568 544 567 544 566 543 565 543 564 541 562 541 561 540 560 540 557 539 556 539 555 538 554 538 552 537 551 537 550 536 549 536 547 535 546 535 545 534 544 534 543 533 542 533 540 532 539 532 538 531 537 531 535 530 534 530 533 529 532 529 530 528 529 528 527 527 526 527 525 526 524 526 522 525 521 525 520 524 519 524 517 523 516 523 514 522 513 522 511 521 510 521 508 520 507 520 506 519 505 519 503 518 502 518 500 517 499 517 497 516 496 516 494 515 493 515 491 514 490 514 488 513 487 513 485 512 484 512 482 510 480 510 476 509 475 509 473 508 472 508 470 507 469 507 467 506 466 506 463 505 462 505 460 504 459 504 457 503 456 503 454 502 453 502 451 501 450 501 447 500 446 500 444 499 443 499 441 498 440 498 438 497 437 497 435 496 434 496 431 495 430 495 428 494 427 494 425 493 424 493 422 492 421 492 419 491 418 491 415 490 414 490 412 489 411 489 409 488 408 488 405 487 404 487 402 486 401 486 399 485 398 485 395 484 394 484 392 483 391 483 389 482 388 482 385 481 384 481 382 480 381 480 379 479 378 479 375 478 374 478 372 477 371 477 369 476 368 476 366 475 365 475 362 474 361 474 359 473 358 473 356 472 355 472 353 471 352 471 350 470 349 470 347 469 346 469 344 468 343 468 340 467 339 467 337 466 336 466 334 465 333 465 331 464 330 464 328 463 327 463 325 462 324 462 322 461 321 461 319 460 318 460 316 459 315 459 312 458 311 458 308 457 307 457 304 456 303 456 301 455 300 455 298 454 297 454 295 453 294 453 293 452 292 452 291 451 290 451 289 448 286 448 285 446 283 445 283 442 280 441 280 440 279 439 279 438 278 437 278 436 277 433 277 432 276 Z"/>
<path d="M 423 290 424 289 429 289 430 290 432 290 433 291 434 291 439 296 439 297 440 298 440 300 441 301 441 303 442 304 442 309 443 310 443 314 444 315 444 319 445 320 445 322 446 323 446 324 447 325 447 327 448 328 448 331 449 332 449 334 450 335 450 337 451 338 451 340 452 341 452 343 453 344 453 346 454 347 454 348 455 349 455 351 456 352 456 355 457 356 457 357 458 358 458 361 459 362 459 364 460 365 460 367 461 368 461 371 462 372 462 374 463 375 463 377 464 378 464 380 465 381 465 383 466 384 466 387 467 388 467 391 468 392 468 394 469 395 469 396 470 397 470 400 471 401 471 403 472 404 472 407 473 408 473 411 474 412 474 413 475 414 475 417 476 418 476 420 477 421 477 423 478 424 478 427 479 428 479 430 480 431 480 433 481 434 481 436 482 437 482 439 483 440 483 443 484 444 484 447 485 448 485 450 486 451 486 452 487 453 487 455 488 456 488 459 489 460 489 463 490 464 490 466 491 467 491 468 492 469 492 471 493 472 493 474 494 475 494 478 495 479 495 481 496 482 496 484 497 485 497 487 498 488 498 490 499 491 499 492 500 493 500 495 501 496 501 499 502 500 502 502 503 503 503 505 504 506 504 508 505 509 505 511 506 512 506 514 507 515 507 516 508 517 508 519 509 520 509 522 510 523 510 524 511 525 511 527 512 528 512 530 513 531 513 532 514 533 514 535 515 536 515 538 516 539 516 540 517 541 517 543 518 544 518 545 519 546 519 547 520 548 520 550 521 551 521 553 522 554 522 555 523 556 523 557 524 558 524 559 525 560 525 562 526 563 526 564 527 565 527 566 528 567 528 569 529 570 529 571 530 572 530 573 531 574 531 575 532 576 532 577 533 578 533 580 535 582 535 583 536 584 536 586 537 587 537 588 538 589 538 590 539 591 539 592 540 593 540 594 541 595 541 596 543 598 543 600 544 601 544 607 543 608 543 610 538 615 536 615 535 616 530 616 529 615 528 615 527 614 526 614 522 610 522 609 520 607 520 605 519 604 519 602 518 601 518 600 517 599 517 598 516 597 516 595 515 594 515 592 514 591 514 590 513 589 513 588 512 587 512 586 511 585 511 583 510 582 510 581 509 580 509 578 508 577 508 576 507 575 507 573 506 572 506 571 505 570 505 568 504 567 504 566 503 565 503 563 502 562 502 560 501 559 501 558 500 557 500 555 499 554 499 552 498 551 498 550 497 549 497 547 496 546 496 545 495 544 495 542 494 541 494 539 493 538 493 536 492 535 492 533 491 532 491 531 490 530 490 528 489 527 489 525 488 524 488 522 487 521 487 519 486 518 486 516 485 515 485 514 484 513 484 510 483 509 483 507 482 506 482 504 481 503 481 501 480 500 480 499 479 498 479 496 478 495 478 492 477 491 477 490 476 489 476 486 475 485 475 483 474 482 474 480 473 479 473 477 472 476 472 474 471 473 471 471 470 470 470 468 469 467 469 465 468 464 468 461 467 460 467 459 466 458 466 456 465 455 465 453 464 452 464 450 463 449 463 446 462 445 462 443 461 442 461 440 460 439 460 437 459 436 459 434 458 433 458 431 457 430 457 428 456 427 456 424 455 423 455 421 454 420 454 419 453 418 453 416 452 415 452 413 451 412 451 410 450 409 450 406 449 405 449 404 448 403 448 400 447 399 447 397 446 396 446 395 445 394 445 392 444 391 444 389 443 388 443 387 442 386 442 383 441 382 441 381 440 380 440 378 439 377 439 375 438 374 438 372 437 371 437 370 436 369 436 367 435 366 435 364 434 363 434 362 433 361 433 360 432 359 432 357 431 356 431 354 430 353 430 352 429 351 429 349 428 348 428 347 427 346 427 344 426 343 426 342 425 341 425 340 424 339 424 338 423 337 423 335 422 334 422 333 421 332 421 330 420 329 420 328 419 327 419 325 418 324 418 322 417 321 417 320 416 319 416 317 415 316 415 313 414 312 414 311 413 310 413 307 412 306 412 301 413 300 413 298 414 297 414 296 415 295 415 294 416 293 417 293 419 291 420 291 421 290 Z"/>
<path d="M 652 260 651 261 648 261 647 262 646 262 645 263 644 263 643 264 642 264 639 267 638 267 637 268 637 269 634 272 634 273 633 274 633 275 632 276 632 277 631 278 631 280 630 281 630 287 629 288 629 291 630 292 630 299 631 300 631 303 632 304 632 307 633 308 633 311 634 312 634 315 635 316 635 318 636 319 636 322 637 323 637 326 638 327 638 329 639 330 639 331 640 331 641 332 641 333 642 334 642 335 641 336 641 338 642 339 642 341 643 342 643 344 644 345 644 348 645 349 645 351 646 352 646 354 647 355 647 357 648 358 648 360 649 361 649 363 650 364 650 366 651 367 651 369 652 370 652 372 653 373 653 375 654 376 654 378 655 379 655 381 656 382 656 384 657 385 657 387 658 388 658 390 659 391 659 393 660 394 660 396 661 397 661 399 662 400 662 402 663 403 663 405 664 406 664 408 665 409 665 412 666 413 666 415 667 416 667 418 668 419 668 420 669 421 669 423 670 424 670 426 671 427 671 429 673 431 673 435 674 436 674 438 675 439 675 441 676 442 676 444 677 445 677 447 678 448 678 450 679 451 679 452 680 453 680 455 681 456 681 458 682 459 682 461 683 462 683 464 684 465 684 467 685 468 685 470 686 471 686 472 687 473 687 475 690 478 690 483 691 484 691 486 692 487 692 488 693 489 693 491 694 492 694 493 695 494 695 496 696 497 696 499 697 500 697 501 698 502 698 504 699 505 699 506 700 507 700 509 701 510 701 512 702 513 702 514 703 515 703 516 704 517 704 519 705 520 705 521 706 522 706 524 707 525 707 526 708 527 708 528 709 529 709 531 710 532 710 533 711 534 711 535 712 536 712 538 713 539 713 540 714 541 714 542 715 543 715 544 716 545 716 547 717 548 717 549 718 550 718 551 719 552 719 553 720 554 720 556 721 557 721 558 722 559 722 560 723 561 723 562 724 563 724 564 725 565 725 566 726 567 726 569 727 570 727 571 728 572 728 573 729 574 729 575 730 576 730 577 731 578 731 579 732 580 732 581 733 582 733 583 734 584 734 585 736 587 736 588 737 589 737 590 746 599 747 599 748 600 749 600 750 601 751 601 752 602 755 602 756 603 766 603 767 602 769 602 770 601 772 601 773 600 774 600 776 598 777 598 780 595 780 594 782 592 782 591 783 590 783 589 784 588 784 587 785 586 785 582 786 581 786 574 785 573 785 569 784 568 784 566 783 566 782 565 782 563 781 562 781 561 780 560 780 558 779 557 779 556 778 555 778 554 777 553 777 552 776 551 776 550 775 549 775 548 774 547 774 546 773 545 773 544 772 543 772 542 771 541 771 540 770 539 770 538 769 537 769 536 768 535 768 534 765 531 765 530 764 529 764 526 763 525 763 524 762 523 762 522 761 521 761 520 760 519 760 518 759 517 759 516 758 515 758 514 757 513 757 511 756 510 756 509 755 508 755 507 754 506 754 505 753 504 753 502 752 501 752 500 751 499 751 498 750 497 750 495 749 494 749 493 748 492 748 491 747 490 747 488 746 487 746 486 745 485 745 483 744 482 744 481 743 480 743 478 742 477 742 476 741 475 741 473 740 472 740 470 739 469 739 468 738 467 738 465 737 464 737 462 736 461 736 460 735 459 735 457 734 456 734 454 733 453 733 451 732 450 732 449 731 448 731 446 730 445 730 443 729 442 729 440 728 439 728 437 727 436 727 434 726 433 726 431 725 430 725 428 724 427 724 425 723 424 723 422 722 421 722 419 721 418 721 416 720 415 720 413 719 412 719 410 718 409 718 407 717 406 717 404 716 403 716 401 715 400 715 397 714 396 714 394 713 393 713 391 712 390 712 387 711 386 711 384 710 383 710 381 709 380 709 377 708 376 708 374 707 373 707 370 706 369 706 367 705 366 705 363 704 362 704 360 703 359 703 357 701 355 701 350 700 349 700 346 699 345 699 343 698 342 698 339 697 338 697 335 696 334 696 331 695 330 695 328 694 327 694 324 693 323 693 319 692 318 692 315 691 314 691 310 690 309 690 304 689 303 689 297 688 296 688 291 687 290 687 286 686 285 686 283 685 282 685 280 684 279 684 277 683 276 683 275 681 273 681 272 673 264 672 264 671 263 670 263 669 262 668 262 667 261 664 261 663 260 Z"/>
<path d="M 654 274 655 273 660 273 661 274 663 274 664 275 665 275 670 280 670 281 671 282 671 284 672 285 672 290 673 291 673 300 674 301 674 307 675 308 675 312 676 313 676 317 677 318 677 321 678 322 678 325 679 326 679 329 680 330 680 333 681 334 681 337 682 338 682 341 683 342 683 345 684 346 684 348 685 349 685 351 686 352 686 355 687 356 687 359 688 360 688 362 689 363 689 366 690 367 690 369 691 370 691 372 692 373 692 375 693 376 693 379 694 380 694 383 695 384 695 386 696 387 696 389 697 390 697 393 698 394 698 396 699 397 699 399 700 400 700 402 701 403 701 405 702 406 702 408 703 409 703 412 704 413 704 415 705 416 705 418 706 419 706 421 707 422 707 424 708 425 708 427 709 428 709 431 710 432 710 433 711 434 711 436 712 437 712 439 713 440 713 442 714 443 714 445 715 446 715 447 716 448 716 451 717 452 717 453 718 454 718 456 719 457 719 459 720 460 720 462 721 463 721 465 722 466 722 467 723 468 723 470 724 471 724 473 725 474 725 475 726 476 726 478 727 479 727 481 728 482 728 483 729 484 729 485 730 486 730 488 731 489 731 490 732 491 732 493 733 494 733 495 734 496 734 498 735 499 735 500 736 501 736 503 737 504 737 505 738 506 738 507 739 508 739 509 740 510 740 512 741 513 741 514 742 515 742 516 743 517 743 519 744 520 744 521 745 522 745 523 746 524 746 525 747 526 747 527 748 528 748 529 749 530 749 532 750 533 750 534 752 536 752 538 753 539 753 540 755 542 755 544 756 545 756 546 757 547 757 548 758 549 758 550 760 552 760 553 761 554 761 555 762 556 762 557 763 558 763 559 764 560 764 561 766 563 766 564 767 565 767 566 768 567 768 568 769 569 769 570 770 571 770 572 772 574 772 578 773 579 772 580 772 583 771 584 771 585 767 589 766 589 765 590 757 590 756 589 755 589 751 585 751 584 750 583 750 582 748 580 748 579 747 578 747 576 746 575 746 574 745 573 745 572 744 571 744 570 743 569 743 568 742 567 742 566 741 565 741 564 740 563 740 562 739 561 739 560 738 559 738 557 737 556 737 555 736 554 736 553 735 552 735 550 733 548 733 546 732 545 732 544 731 543 731 542 730 541 730 540 729 539 729 537 728 536 728 535 727 534 727 533 726 532 726 531 725 530 725 528 724 527 724 526 723 525 723 523 722 522 722 521 721 520 721 519 720 518 720 517 719 516 719 514 718 513 718 512 717 511 717 509 716 508 716 507 715 506 715 504 714 503 714 502 713 501 713 499 712 498 712 496 711 495 711 494 710 493 710 491 709 490 709 489 708 488 708 486 707 485 707 483 706 482 706 481 705 480 705 478 704 477 704 475 703 474 703 472 702 471 702 470 701 469 701 467 700 466 700 464 699 463 699 461 698 460 698 459 697 458 697 456 696 455 696 453 695 452 695 450 694 449 694 448 693 447 693 445 692 444 692 442 691 441 691 440 690 439 690 436 689 435 689 433 688 432 688 430 687 429 687 427 686 426 686 424 685 423 685 421 684 420 684 419 683 418 683 416 682 415 682 413 681 412 681 409 680 408 680 406 679 405 679 403 678 402 678 400 677 399 677 397 676 396 676 395 675 394 675 392 674 391 674 389 673 388 673 386 672 385 672 382 671 381 671 379 670 378 670 376 669 375 669 373 668 372 668 371 667 370 667 368 666 367 666 364 665 363 665 361 664 360 664 358 663 357 663 355 662 354 662 352 661 351 661 349 660 348 660 346 659 345 659 343 658 342 658 340 657 339 657 336 656 335 656 334 655 333 655 330 654 329 654 328 653 327 653 324 652 323 652 320 651 319 651 317 650 316 650 314 649 313 649 310 648 309 648 306 647 305 647 302 646 301 646 298 645 297 645 295 644 294 644 291 643 290 643 285 644 284 644 282 645 281 645 280 647 278 647 277 648 276 649 276 651 274 Z"/>
</g>
</svg>
